.
..............................Site Info...........................

 -   http://www.scenetime.com  *_*   

SceneTime is going to Close sign up on march/1, hurry up! get in before the doors are closed.

     We care to share . Join us on  http://www.scenetime.com 

    Be the first to get new release at  http://www.scenetime.com

        Seed back for speed


...................................NFO:.................................................[center][IMG]http://lookpic.com/O/i2/1226/ngUezJRb.jpeg[/IMG][/center]
[center][color=green]Push 2009 DVDRip x264 AC3 - konscious[/color][/center]


[img]http://lookpic.com/i/595/WZpBR7F1.png[/img]
[nfo][font=Courier New]


Complete name                    : Push 2009 DVDRip x264 AC3 - konscious.mkv
Format                           : Matroska
Format version                   : Version 2
File size                        : 1.60 GiB
Duration                         : 1h 51mn
Overall bit rate                 : 2 053 Kbps
Encoded date                     : UTC 2012-02-29 07:41:06
Writing application              : mkvmerge v5.2.1 ('A Far Off Place') 
Writing library                  : libebml v1.2.3 + libmatroska v1.3.0
Source                           : DVD9
Sample                           : Yes
Encoder                          : [color=darkturquoise]konscious[/color]

[url]http://www.imdb.com/title/tt0465580/[/url]

Ratings: 6.0/10 from 44,242 users  
Genre:   Action | Sci-Fi | Thriller 

[color=green]Video[/color]

Format                           : AVC
Format/Info                      : Advanced Video Codec
Format profile                   : High@L4.1
Format settings, CABAC           : Yes
Format settings, ReFrames        : 3 frames
Codec ID                         : V_MPEG4/ISO/AVC
Duration                         : 1h 51mn
Bit rate                         : 1 603 Kbps
Width                            : 720 pixels
Height                           : 304 pixels
Display aspect ratio             : 2.35:1
Frame rate                       : 23.976 fps
Color space                      : YUV
Chroma subsampling               : 4:2:0
Bit depth                        : 8 bits
Scan type                        : Progressive
Bits/(Pixel*Frame)               : 0.305
Stream size                      : 1.22 GiB (76%)
Writing library                  : x264 core 120 r2164 da19765

[color=green]Audio[/color]

Format                           : AC-3
Format/Info                      : Audio Coding 3
Mode extension                   : CM (complete main)
Codec ID                         : A_AC3
Duration                         : 1h 51mn
Bit rate mode                    : Constant
Bit rate                         : 448 Kbps
Channel(s)                       : 6 channels
Channel positions                : Front: L C R, Side: L R, LFE
Sampling rate                    : 48.0 KHz
Bit depth                        : 16 bits
Compression mode                 : Lossy
Stream size                      : 357 MiB (22%)




[cast]
Colin Ford 	... 	Young Nick
Joel Gretsch 	... 	Nick's Father
Djimon Hounsou 	... 	Henry Carver
Dakota Fanning 	... 	Cassie Holmes
Robert Tsonos 	... 	Division Doctor #1
Brandon Rhea 	... 	Division Doctor #2
Camilla Belle 	... 	Kira Hudson
Neil Jackson 	... 	Victor Budarin
Chris Evans 	... 	Nick Gant  

[plot]

Two young Americans with special abilities must race to find a girl in 
Hong Kong before a shadowy government organization called Division does. 

[note]
[color=red]
Dont forget to thank the uploader/add rep

Greets to: DiVERSiTY RG, warhawk, tinners117, 
and all who make p2p what it is today.[/color]




[screens]
[center]
[IMG]http://lookpic.com/O/i2/1719/uHLNRd.png[/IMG]
[IMG]http://lookpic.com/O/i2/1803/ssHKylzr.png[/IMG]
[IMG]http://lookpic.com/O/i2/786/vWauuzDI.png[/IMG]
[IMG]http://lookpic.com/O/i2/986/uyhZGKzy.png[/IMG]

[/center]



[trailer]


[/nfo][/font]